<?xml version="1.0" encoding="UTF-8" ?>
<svg version="1.1" width="48" height="16" xmlns="http://www.w3.org/2000/svg" shape-rendering="crispEdges">
<rect x="5" y="0" width="6" height="1" fill="#000000" />
<rect x="3" y="1" width="3" height="1" fill="#000000" />
<rect x="6" y="1" width="4" height="1" fill="#FFFFFF" />
<rect x="10" y="1" width="3" height="1" fill="#000000" />
<rect x="2" y="2" width="2" height="1" fill="#000000" />
<rect x="4" y="2" width="2" height="1" fill="#FFFFFF" />
<rect x="6" y="2" width="4" height="1" fill="#000000" />
<rect x="10" y="2" width="2" height="1" fill="#FFFFFF" />
<rect x="12" y="2" width="2" height="1" fill="#000000" />
<rect x="1" y="3" width="2" height="1" fill="#000000" />
<rect x="3" y="3" width="1" height="1" fill="#FFFFFF" />
<rect x="4" y="3" width="3" height="10" fill="#000000" />
<rect x="7" y="3" width="2" height="12" fill="#FFFFFF" />
<rect x="9" y="3" width="3" height="10" fill="#000000" />
<rect x="12" y="3" width="1" height="1" fill="#FFFFFF" />
<rect x="13" y="3" width="2" height="1" fill="#000000" />
<rect x="1" y="4" width="1" height="2" fill="#000000" />
<rect x="2" y="4" width="1" height="2" fill="#FFFFFF" />
<rect x="3" y="4" width="1" height="8" fill="#000000" />
<rect x="12" y="4" width="1" height="8" fill="#000000" />
<rect x="13" y="4" width="1" height="2" fill="#FFFFFF" />
<rect x="14" y="4" width="34" height="1" fill="#000000" />
<rect x="0" y="5" width="1" height="6" fill="#000000" />
<rect x="14" y="5" width="3" height="1" fill="#000000" />
<rect x="17" y="5" width="3" height="1" fill="#FFFFFF" />
<rect x="20" y="5" width="21" height="1" fill="#000000" />
<rect x="41" y="5" width="1" height="1" fill="#FFFFFF" />
<rect x="42" y="5" width="6" height="1" fill="#000000" />
<rect x="1" y="6" width="1" height="4" fill="#FFFFFF" />
<rect x="2" y="6" width="1" height="4" fill="#000000" />
<rect x="13" y="6" width="1" height="4" fill="#000000" />
<rect x="14" y="6" width="1" height="4" fill="#FFFFFF" />
<rect x="15" y="6" width="2" height="6" fill="#000000" />
<rect x="17" y="6" width="1" height="4" fill="#FFFFFF" />
<rect x="18" y="6" width="3" height="1" fill="#000000" />
<rect x="21" y="6" width="1" height="1" fill="#FFFFFF" />
<rect x="22" y="6" width="1" height="1" fill="#000000" />
<rect x="23" y="6" width="1" height="1" fill="#FFFFFF" />
<rect x="24" y="6" width="2" height="1" fill="#000000" />
<rect x="26" y="6" width="1" height="2" fill="#FFFFFF" />
<rect x="27" y="6" width="3" height="1" fill="#000000" />
<rect x="30" y="6" width="2" height="1" fill="#FFFFFF" />
<rect x="32" y="6" width="2" height="1" fill="#000000" />
<rect x="34" y="6" width="1" height="2" fill="#FFFFFF" />
<rect x="35" y="6" width="2" height="1" fill="#000000" />
<rect x="37" y="6" width="3" height="1" fill="#FFFFFF" />
<rect x="40" y="6" width="3" height="1" fill="#000000" />
<rect x="43" y="6" width="3" height="1" fill="#FFFFFF" />
<rect x="46" y="6" width="2" height="6" fill="#000000" />
<rect x="18" y="7" width="1" height="1" fill="#FFFFFF" />
<rect x="19" y="7" width="3" height="2" fill="#000000" />
<rect x="22" y="7" width="1" height="2" fill="#FFFFFF" />
<rect x="23" y="7" width="2" height="2" fill="#000000" />
<rect x="25" y="7" width="1" height="2" fill="#FFFFFF" />
<rect x="27" y="7" width="1" height="1" fill="#FFFFFF" />
<rect x="28" y="7" width="1" height="5" fill="#000000" />
<rect x="29" y="7" width="1" height="2" fill="#FFFFFF" />
<rect x="30" y="7" width="1" height="3" fill="#000000" />
<rect x="31" y="7" width="1" height="4" fill="#FFFFFF" />
<rect x="32" y="7" width="1" height="5" fill="#000000" />
<rect x="33" y="7" width="1" height="2" fill="#FFFFFF" />
<rect x="35" y="7" width="1" height="1" fill="#FFFFFF" />
<rect x="36" y="7" width="1" height="5" fill="#000000" />
<rect x="37" y="7" width="1" height="1" fill="#FFFFFF" />
<rect x="38" y="7" width="3" height="1" fill="#000000" />
<rect x="41" y="7" width="1" height="3" fill="#FFFFFF" />
<rect x="42" y="7" width="1" height="5" fill="#000000" />
<rect x="43" y="7" width="1" height="1" fill="#FFFFFF" />
<rect x="44" y="7" width="2" height="1" fill="#000000" />
<rect x="18" y="8" width="1" height="1" fill="#000000" />
<rect x="26" y="8" width="2" height="1" fill="#000000" />
<rect x="34" y="8" width="2" height="1" fill="#000000" />
<rect x="37" y="8" width="2" height="1" fill="#000000" />
<rect x="39" y="8" width="1" height="2" fill="#FFFFFF" />
<rect x="40" y="8" width="1" height="4" fill="#000000" />
<rect x="43" y="8" width="2" height="1" fill="#000000" />
<rect x="45" y="8" width="1" height="2" fill="#FFFFFF" />
<rect x="18" y="9" width="2" height="1" fill="#FFFFFF" />
<rect x="20" y="9" width="1" height="3" fill="#000000" />
<rect x="21" y="9" width="1" height="1" fill="#FFFFFF" />
<rect x="22" y="9" width="1" height="3" fill="#000000" />
<rect x="23" y="9" width="1" height="1" fill="#FFFFFF" />
<rect x="24" y="9" width="2" height="3" fill="#000000" />
<rect x="26" y="9" width="1" height="1" fill="#FFFFFF" />
<rect x="27" y="9" width="1" height="3" fill="#000000" />
<rect x="29" y="9" width="1" height="1" fill="#000000" />
<rect x="33" y="9" width="1" height="3" fill="#000000" />
<rect x="34" y="9" width="1" height="1" fill="#FFFFFF" />
<rect x="35" y="9" width="1" height="3" fill="#000000" />
<rect x="37" y="9" width="2" height="1" fill="#FFFFFF" />
<rect x="43" y="9" width="2" height="1" fill="#FFFFFF" />
<rect x="1" y="10" width="1" height="3" fill="#000000" />
<rect x="2" y="10" width="1" height="2" fill="#FFFFFF" />
<rect x="13" y="10" width="1" height="2" fill="#FFFFFF" />
<rect x="14" y="10" width="1" height="3" fill="#000000" />
<rect x="17" y="10" width="3" height="2" fill="#000000" />
<rect x="21" y="10" width="1" height="2" fill="#000000" />
<rect x="23" y="10" width="1" height="2" fill="#000000" />
<rect x="26" y="10" width="1" height="2" fill="#000000" />
<rect x="29" y="10" width="2" height="1" fill="#FFFFFF" />
<rect x="34" y="10" width="1" height="2" fill="#000000" />
<rect x="37" y="10" width="3" height="2" fill="#000000" />
<rect x="41" y="10" width="1" height="2" fill="#000000" />
<rect x="43" y="10" width="3" height="2" fill="#000000" />
<rect x="29" y="11" width="3" height="1" fill="#000000" />
<rect x="2" y="12" width="1" height="2" fill="#000000" />
<rect x="3" y="12" width="1" height="1" fill="#FFFFFF" />
<rect x="12" y="12" width="1" height="1" fill="#FFFFFF" />
<rect x="13" y="12" width="1" height="2" fill="#000000" />
<rect x="3" y="13" width="1" height="2" fill="#000000" />
<rect x="4" y="13" width="2" height="1" fill="#FFFFFF" />
<rect x="6" y="13" width="1" height="3" fill="#000000" />
<rect x="9" y="13" width="1" height="3" fill="#000000" />
<rect x="10" y="13" width="2" height="1" fill="#FFFFFF" />
<rect x="12" y="13" width="1" height="2" fill="#000000" />
<rect x="4" y="14" width="2" height="1" fill="#000000" />
<rect x="10" y="14" width="2" height="1" fill="#000000" />
<rect x="5" y="15" width="1" height="1" fill="#000000" />
<rect x="7" y="15" width="2" height="1" fill="#000000" />
<rect x="10" y="15" width="1" height="1" fill="#000000" />
</svg>