<?xml version="1.0" encoding="UTF-8" ?>
<svg version="1.1" width="128" height="96" xmlns="http://www.w3.org/2000/svg" shape-rendering="crispEdges">
<rect x="0" y="0" width="128" height="41" fill="#000000" />
<rect x="0" y="41" width="62" height="1" fill="#000000" />
<rect x="62" y="41" width="4" height="1" fill="#FFFFFF" />
<rect x="66" y="41" width="62" height="1" fill="#000000" />
<rect x="0" y="42" width="60" height="1" fill="#000000" />
<rect x="60" y="42" width="2" height="1" fill="#FFFFFF" />
<rect x="62" y="42" width="4" height="1" fill="#000000" />
<rect x="66" y="42" width="2" height="1" fill="#FFFFFF" />
<rect x="68" y="42" width="60" height="1" fill="#000000" />
<rect x="0" y="43" width="59" height="1" fill="#000000" />
<rect x="59" y="43" width="1" height="1" fill="#FFFFFF" />
<rect x="60" y="43" width="3" height="10" fill="#000000" />
<rect x="63" y="43" width="2" height="12" fill="#FFFFFF" />
<rect x="65" y="43" width="3" height="10" fill="#000000" />
<rect x="68" y="43" width="1" height="1" fill="#FFFFFF" />
<rect x="69" y="43" width="59" height="1" fill="#000000" />
<rect x="0" y="44" width="58" height="2" fill="#000000" />
<rect x="58" y="44" width="1" height="2" fill="#FFFFFF" />
<rect x="59" y="44" width="1" height="8" fill="#000000" />
<rect x="68" y="44" width="1" height="8" fill="#000000" />
<rect x="69" y="44" width="1" height="2" fill="#FFFFFF" />
<rect x="70" y="44" width="58" height="2" fill="#000000" />
<rect x="0" y="46" width="57" height="50" fill="#000000" />
<rect x="57" y="46" width="1" height="4" fill="#FFFFFF" />
<rect x="58" y="46" width="1" height="4" fill="#000000" />
<rect x="69" y="46" width="1" height="4" fill="#000000" />
<rect x="70" y="46" width="1" height="4" fill="#FFFFFF" />
<rect x="71" y="46" width="57" height="50" fill="#000000" />
<rect x="57" y="50" width="1" height="46" fill="#000000" />
<rect x="58" y="50" width="1" height="2" fill="#FFFFFF" />
<rect x="69" y="50" width="1" height="2" fill="#FFFFFF" />
<rect x="70" y="50" width="1" height="46" fill="#000000" />
<rect x="58" y="52" width="1" height="44" fill="#000000" />
<rect x="59" y="52" width="1" height="1" fill="#FFFFFF" />
<rect x="68" y="52" width="1" height="1" fill="#FFFFFF" />
<rect x="69" y="52" width="1" height="44" fill="#000000" />
<rect x="59" y="53" width="1" height="43" fill="#000000" />
<rect x="60" y="53" width="2" height="1" fill="#FFFFFF" />
<rect x="62" y="53" width="1" height="43" fill="#000000" />
<rect x="65" y="53" width="1" height="43" fill="#000000" />
<rect x="66" y="53" width="2" height="1" fill="#FFFFFF" />
<rect x="68" y="53" width="1" height="43" fill="#000000" />
<rect x="60" y="54" width="2" height="42" fill="#000000" />
<rect x="66" y="54" width="2" height="42" fill="#000000" />
<rect x="63" y="55" width="2" height="41" fill="#000000" />
</svg>